<svg id="my-svg" width="100%" xmlns="http://www.w3.org/2000/svg" xmlns:xlink="http://www.w3.org/1999/xlink" style="max-width: 552.818px; background-color: white;" viewBox="-215.65875244140625 -312.6605224609375 552.8175048828125 789.321044921875" role="graphics-document document" aria-roledescription="architecture"><style>#my-svg{font-family:"trebuchet ms",verdana,arial,sans-serif;font-size:16px;fill:#333;}@keyframes edge-animation-frame{from{stroke-dashoffset:0;}}@keyframes dash{to{stroke-dashoffset:0;}}#my-svg .edge-animation-slow{stroke-dasharray:9,5!important;stroke-dashoffset:900;animation:dash 50s linear infinite;stroke-linecap:round;}#my-svg .edge-animation-fast{stroke-dasharray:9,5!important;stroke-dashoffset:900;animation:dash 20s linear infinite;stroke-linecap:round;}#my-svg .error-icon{fill:#552222;}#my-svg .error-text{fill:#552222;stroke:#552222;}#my-svg .edge-thickness-normal{stroke-width:1px;}#my-svg .edge-thickness-thick{stroke-width:3.5px;}#my-svg .edge-pattern-solid{stroke-dasharray:0;}#my-svg .edge-thickness-invisible{stroke-width:0;fill:none;}#my-svg .edge-pattern-dashed{stroke-dasharray:3;}#my-svg .edge-pattern-dotted{stroke-dasharray:2;}#my-svg .marker{fill:#333333;stroke:#333333;}#my-svg .marker.cross{stroke:#333333;}#my-svg svg{font-family:"trebuchet ms",verdana,arial,sans-serif;font-size:16px;}#my-svg p{margin:0;}#my-svg .edge{stroke-width:3;stroke:#333333;fill:none;}#my-svg .arrow{fill:#333333;}#my-svg .node-bkg{fill:none;stroke:hsl(240, 60%, 86.2745098039%);stroke-width:2px;stroke-dasharray:8;}#my-svg .node-icon-text{display:flex;align-items:center;}#my-svg .node-icon-text&gt;div{color:#fff;margin:1px;height:fit-content;text-align:center;overflow:hidden;display:-webkit-box;-webkit-box-orient:vertical;}#my-svg :root{--mermaid-font-family:"trebuchet ms",verdana,arial,sans-serif;}</style><g/><g class="architecture-edges"><g><path d="M 60.75,-192.66052263235878 L 60.75,-132.12637945727954 L60.75,-71.59223628220033" class="edge" id="L_ext_hub_0"/></g><g><path d="M -100.40870990919015,-31.592236282200332 L -39.829354954595075,-31.592236282200332 L20.75,-31.592236282200332" class="edge" id="L_dns_hub_0"/></g><g><path d="M 100.75,-31.592236282200332 L 161.3293549545951,-31.592236282200332 L221.90870990919015,-31.592236282200332" class="edge" id="L_hub_iot_0"/></g><g><path d="M 60.75,131.09223628024534 L 60.75,69.74999999902249 L60.75,8.407763717799668" class="edge" id="L_hib_hub_0"/></g><g><path d="M -100.40870990919015,171.09223628024534 L -39.829354954595075,171.09223628024534 L20.75,171.09223628024534" class="edge" id="L_gst_hib_0"/></g><g><path d="M 60.75,332.1605226323588 L 60.75,271.62637945630206 L60.75,211.09223628024534" class="edge" id="L_hom_hib_0"/></g><g><path d="M 221.90870990919015,171.09223628024534 L 161.3293549545951,171.09223628024534 L100.75,171.09223628024534" class="edge" id="L_wrk_hib_0"/></g></g><g class="architecture-services"><g id="service-ext" class="architecture-service" transform="translate(20.75,-272.6605226323588)"><g dy="1em" alignment-baseline="middle" dominant-baseline="middle" text-anchor="middle" transform="translate(40, 80)"><g><rect class="background" style="stroke: none"/><text y="-10.1" style=""><tspan class="text-outer-tspan" x="0" y="-0.1em" dy="1.1em"><tspan font-style="normal" class="text-inner-tspan" font-weight="normal">Internet</tspan></tspan></text></g></g><g><g><svg xmlns="http://www.w3.org/2000/svg" width="80" height="80" viewBox="0 0 80 80"><g><rect width="80" height="80" style="fill: #087ebf; stroke-width: 0px;"/><circle cx="40" cy="40" r="22.5" style="fill: none; stroke: #fff; stroke-miterlimit: 10; stroke-width: 2px;"/><line x1="40" y1="17.5" x2="40" y2="62.5" style="fill: none; stroke: #fff; stroke-miterlimit: 10; stroke-width: 2px;"/><line x1="17.5" y1="40" x2="62.5" y2="40" style="fill: none; stroke: #fff; stroke-miterlimit: 10; stroke-width: 2px;"/><path d="m39.99,17.51c-15.28,11.1-15.28,33.88,0,44.98" style="fill: none; stroke: #fff; stroke-miterlimit: 10; stroke-width: 2px;"/><path d="m40.01,17.51c15.28,11.1,15.28,33.88,0,44.98" style="fill: none; stroke: #fff; stroke-miterlimit: 10; stroke-width: 2px;"/><line x1="19.75" y1="30.1" x2="60.25" y2="30.1" style="fill: none; stroke: #fff; stroke-miterlimit: 10; stroke-width: 2px;"/><line x1="19.75" y1="49.9" x2="60.25" y2="49.9" style="fill: none; stroke: #fff; stroke-miterlimit: 10; stroke-width: 2px;"/></g></svg></g></g></g><g id="service-hub" class="architecture-service" transform="translate(20.75,-71.59223628220033)"><g dy="1em" alignment-baseline="middle" dominant-baseline="middle" text-anchor="middle" transform="translate(40, 80)"><g><rect class="background" style="stroke: none"/><text y="-10.1" style=""><tspan class="text-outer-tspan" x="0" y="-0.1em" dy="1.1em"><tspan font-style="normal" class="text-inner-tspan" font-weight="normal">HUB</tspan></tspan></text></g></g><g><g><svg xmlns="http://www.w3.org/2000/svg" width="80" height="80" viewBox="0 0 24 24"><path fill="currentColor" d="M20.15 12L16.3 8.1q-.275-.275-.288-.687T16.3 6.7q.275-.275.7-.275t.7.275l4.6 4.6q.15.15.213.325t.062.375t-.062.375t-.213.325l-4.6 4.6q-.275.275-.687.288T16.3 17.3q-.275-.275-.275-.7t.275-.7zm-16.3 0l3.85 3.9q.275.275.288.688T7.7 17.3q-.275.275-.7.275t-.7-.275l-4.6-4.6q-.15-.15-.212-.325T1.425 12t.063-.375t.212-.325l4.6-4.6q.275-.275.688-.288T7.7 6.7q.275.275.275.7t-.275.7zM8 13q-.425 0-.712-.288T7 12t.288-.712T8 11t.713.288T9 12t-.288.713T8 13m4 0q-.425 0-.712-.288T11 12t.288-.712T12 11t.713.288T13 12t-.288.713T12 13m4 0q-.425 0-.712-.288T15 12t.288-.712T16 11t.713.288T17 12t-.288.713T16 13"/></svg></g></g></g><g id="service-iot" class="architecture-service" transform="translate(221.90870990919015,-71.59223628220033)"><g dy="1em" alignment-baseline="middle" dominant-baseline="middle" text-anchor="middle" transform="translate(40, 80)"><g><rect class="background" style="stroke: none"/><text y="-10.1" style=""><tspan class="text-outer-tspan" x="0" y="-0.1em" dy="1.1em"><tspan font-style="normal" class="text-inner-tspan" font-weight="normal">IOT</tspan></tspan></text></g></g><g><g><svg xmlns="http://www.w3.org/2000/svg" width="80" height="80" viewBox="0 0 24 24"><path fill="currentColor" d="M20.15 12L16.3 8.1q-.275-.275-.288-.687T16.3 6.7q.275-.275.7-.275t.7.275l4.6 4.6q.15.15.213.325t.062.375t-.062.375t-.213.325l-4.6 4.6q-.275.275-.687.288T16.3 17.3q-.275-.275-.275-.7t.275-.7zm-16.3 0l3.85 3.9q.275.275.288.688T7.7 17.3q-.275.275-.7.275t-.7-.275l-4.6-4.6q-.15-.15-.212-.325T1.425 12t.063-.375t.212-.325l4.6-4.6q.275-.275.688-.288T7.7 6.7q.275.275.275.7t-.275.7zM8 13q-.425 0-.712-.288T7 12t.288-.712T8 11t.713.288T9 12t-.288.713T8 13m4 0q-.425 0-.712-.288T11 12t.288-.712T12 11t.713.288T13 12t-.288.713T12 13m4 0q-.425 0-.712-.288T15 12t.288-.712T16 11t.713.288T17 12t-.288.713T16 13"/></svg></g></g></g><g id="service-dns" class="architecture-service" transform="translate(-180.40870990919015,-71.59223628220033)"><g dy="1em" alignment-baseline="middle" dominant-baseline="middle" text-anchor="middle" transform="translate(40, 80)"><g><rect class="background" style="stroke: none"/><text y="-10.1" style=""><tspan class="text-outer-tspan" x="0" y="-0.1em" dy="1.1em"><tspan font-style="normal" class="text-inner-tspan" font-weight="normal">DNS</tspan></tspan></text></g></g><g><g><svg xmlns="http://www.w3.org/2000/svg" width="80" height="80" viewBox="0 0 24 24"><path fill="currentColor" d="M20.15 12L16.3 8.1q-.275-.275-.288-.687T16.3 6.7q.275-.275.7-.275t.7.275l4.6 4.6q.15.15.213.325t.062.375t-.062.375t-.213.325l-4.6 4.6q-.275.275-.687.288T16.3 17.3q-.275-.275-.275-.7t.275-.7zm-16.3 0l3.85 3.9q.275.275.288.688T7.7 17.3q-.275.275-.7.275t-.7-.275l-4.6-4.6q-.15-.15-.212-.325T1.425 12t.063-.375t.212-.325l4.6-4.6q.275-.275.688-.288T7.7 6.7q.275.275.275.7t-.275.7zM8 13q-.425 0-.712-.288T7 12t.288-.712T8 11t.713.288T9 12t-.288.713T8 13m4 0q-.425 0-.712-.288T11 12t.288-.712T12 11t.713.288T13 12t-.288.713T12 13m4 0q-.425 0-.712-.288T15 12t.288-.712T16 11t.713.288T17 12t-.288.713T16 13"/></svg></g></g></g><g id="service-hib" class="architecture-service" transform="translate(20.75,131.09223628024534)"><g dy="1em" alignment-baseline="middle" dominant-baseline="middle" text-anchor="middle" transform="translate(40, 80)"><g><rect class="background" style="stroke: none"/><text y="-10.1" style=""><tspan class="text-outer-tspan" x="0" y="-0.1em" dy="1.1em"><tspan font-style="normal" class="text-inner-tspan" font-weight="normal">HIB</tspan></tspan></text></g></g><g><g><svg xmlns="http://www.w3.org/2000/svg" width="80" height="80" viewBox="0 0 24 24"><path fill="currentColor" d="M20.15 12L16.3 8.1q-.275-.275-.288-.687T16.3 6.7q.275-.275.7-.275t.7.275l4.6 4.6q.15.15.213.325t.062.375t-.062.375t-.213.325l-4.6 4.6q-.275.275-.687.288T16.3 17.3q-.275-.275-.275-.7t.275-.7zm-16.3 0l3.85 3.9q.275.275.288.688T7.7 17.3q-.275.275-.7.275t-.7-.275l-4.6-4.6q-.15-.15-.212-.325T1.425 12t.063-.375t.212-.325l4.6-4.6q.275-.275.688-.288T7.7 6.7q.275.275.275.7t-.275.7zM8 13q-.425 0-.712-.288T7 12t.288-.712T8 11t.713.288T9 12t-.288.713T8 13m4 0q-.425 0-.712-.288T11 12t.288-.712T12 11t.713.288T13 12t-.288.713T12 13m4 0q-.425 0-.712-.288T15 12t.288-.712T16 11t.713.288T17 12t-.288.713T16 13"/></svg></g></g></g><g id="service-hom" class="architecture-service" transform="translate(20.75,332.1605226323588)"><g dy="1em" alignment-baseline="middle" dominant-baseline="middle" text-anchor="middle" transform="translate(40, 80)"><g><rect class="background" style="stroke: none"/><text y="-10.1" style=""><tspan class="text-outer-tspan" x="0" y="-0.1em" dy="1.1em"><tspan font-style="normal" class="text-inner-tspan" font-weight="normal">HOM</tspan></tspan></text></g></g><g><g><svg xmlns="http://www.w3.org/2000/svg" width="80" height="80" viewBox="0 0 24 24"><path fill="currentColor" d="M20.15 12L16.3 8.1q-.275-.275-.288-.687T16.3 6.7q.275-.275.7-.275t.7.275l4.6 4.6q.15.15.213.325t.062.375t-.062.375t-.213.325l-4.6 4.6q-.275.275-.687.288T16.3 17.3q-.275-.275-.275-.7t.275-.7zm-16.3 0l3.85 3.9q.275.275.288.688T7.7 17.3q-.275.275-.7.275t-.7-.275l-4.6-4.6q-.15-.15-.212-.325T1.425 12t.063-.375t.212-.325l4.6-4.6q.275-.275.688-.288T7.7 6.7q.275.275.275.7t-.275.7zM8 13q-.425 0-.712-.288T7 12t.288-.712T8 11t.713.288T9 12t-.288.713T8 13m4 0q-.425 0-.712-.288T11 12t.288-.712T12 11t.713.288T13 12t-.288.713T12 13m4 0q-.425 0-.712-.288T15 12t.288-.712T16 11t.713.288T17 12t-.288.713T16 13"/></svg></g></g></g><g id="service-gst" class="architecture-service" transform="translate(-180.40870990919015,131.09223628024534)"><g dy="1em" alignment-baseline="middle" dominant-baseline="middle" text-anchor="middle" transform="translate(40, 80)"><g><rect class="background" style="stroke: none"/><text y="-10.1" style=""><tspan class="text-outer-tspan" x="0" y="-0.1em" dy="1.1em"><tspan font-style="normal" class="text-inner-tspan" font-weight="normal">GST</tspan></tspan></text></g></g><g><g><svg xmlns="http://www.w3.org/2000/svg" width="80" height="80" viewBox="0 0 24 24"><path fill="currentColor" d="M20.15 12L16.3 8.1q-.275-.275-.288-.687T16.3 6.7q.275-.275.7-.275t.7.275l4.6 4.6q.15.15.213.325t.062.375t-.062.375t-.213.325l-4.6 4.6q-.275.275-.687.288T16.3 17.3q-.275-.275-.275-.7t.275-.7zm-16.3 0l3.85 3.9q.275.275.288.688T7.7 17.3q-.275.275-.7.275t-.7-.275l-4.6-4.6q-.15-.15-.212-.325T1.425 12t.063-.375t.212-.325l4.6-4.6q.275-.275.688-.288T7.7 6.7q.275.275.275.7t-.275.7zM8 13q-.425 0-.712-.288T7 12t.288-.712T8 11t.713.288T9 12t-.288.713T8 13m4 0q-.425 0-.712-.288T11 12t.288-.712T12 11t.713.288T13 12t-.288.713T12 13m4 0q-.425 0-.712-.288T15 12t.288-.712T16 11t.713.288T17 12t-.288.713T16 13"/></svg></g></g></g><g id="service-wrk" class="architecture-service" transform="translate(221.90870990919015,131.09223628024534)"><g dy="1em" alignment-baseline="middle" dominant-baseline="middle" text-anchor="middle" transform="translate(40, 80)"><g><rect class="background" style="stroke: none"/><text y="-10.1" style=""><tspan class="text-outer-tspan" x="0" y="-0.1em" dy="1.1em"><tspan font-style="normal" class="text-inner-tspan" font-weight="normal">WRK</tspan></tspan></text></g></g><g><g><svg xmlns="http://www.w3.org/2000/svg" width="80" height="80" viewBox="0 0 24 24"><path fill="currentColor" d="M20.15 12L16.3 8.1q-.275-.275-.288-.687T16.3 6.7q.275-.275.7-.275t.7.275l4.6 4.6q.15.15.213.325t.062.375t-.062.375t-.213.325l-4.6 4.6q-.275.275-.687.288T16.3 17.3q-.275-.275-.275-.7t.275-.7zm-16.3 0l3.85 3.9q.275.275.288.688T7.7 17.3q-.275.275-.7.275t-.7-.275l-4.6-4.6q-.15-.15-.212-.325T1.425 12t.063-.375t.212-.325l4.6-4.6q.275-.275.688-.288T7.7 6.7q.275.275.275.7t-.275.7zM8 13q-.425 0-.712-.288T7 12t.288-.712T8 11t.713.288T9 12t-.288.713T8 13m4 0q-.425 0-.712-.288T11 12t.288-.712T12 11t.713.288T13 12t-.288.713T12 13m4 0q-.425 0-.712-.288T15 12t.288-.712T16 11t.713.288T17 12t-.288.713T16 13"/></svg></g></g></g></g><g class="architecture-groups"/></svg>
